<?xml version="1.0" standalone="no"?>
<!DOCTYPE svg PUBLIC "-//W3C//DTD SVG 20010904//EN"
 "http://www.w3.org/TR/2001/REC-SVG-20010904/DTD/svg10.dtd">
<svg version="1.0" xmlns="http://www.w3.org/2000/svg"
 width="700.000000pt" height="700.000000pt" viewBox="0 0 700.000000 700.000000"
 preserveAspectRatio="xMidYMid meet">
<metadata>
Created by potrace 1.14, written by Peter Selinger 2001-2017
</metadata>
<g transform="translate(0.000000,700.000000) scale(0.100000,-0.100000)"
fill="#000000" stroke="none">
<path d="M0 3500 l0 -3500 3500 0 3500 0 0 3500 0 3500 -3500 0 -3500 0 0
-3500z m3050 -1469 l0 -140 66 35 c112 58 216 45 275 -36 29 -39 39 -119 39
-316 l0 -184 -49 0 -50 0 -3 216 -3 216 -29 25 c-26 22 -37 25 -91 21 -43 -3
-74 -12 -108 -31 l-47 -28 0 -209 0 -210 -45 0 -45 0 0 390 0 390 45 0 45 0 0
-139z m1620 -251 l0 -390 -45 0 c-41 0 -45 2 -45 25 0 14 -2 25 -4 25 -2 0
-30 -13 -61 -30 -46 -24 -69 -30 -119 -30 -128 0 -203 89 -213 253 -10 146 39
251 139 301 61 30 141 35 208 11 23 -8 44 -15 46 -15 2 0 4 54 4 120 l0 120
45 0 45 0 0 -390z m-4101 57 c41 -160 77 -295 80 -299 4 -4 40 127 81 292 l75
300 51 0 52 0 72 -292 c40 -161 76 -296 79 -300 4 -4 40 127 81 292 l75 300
47 0 c27 0 48 -3 48 -6 0 -6 -175 -681 -186 -716 -4 -14 -17 -18 -59 -18 l-54
0 -14 48 c-8 26 -43 163 -78 304 -35 142 -66 252 -70 245 -3 -6 -39 -144 -79
-304 l-72 -293 -54 0 -53 0 -12 43 c-6 23 -50 189 -98 370 l-88 327 51 0 51 0
74 -293z m5589 251 l3 -38 -50 0 -51 0 0 -295 0 -295 51 0 50 0 -3 -37 -3 -38
-147 -3 -148 -3 0 41 0 40 50 0 50 0 0 295 0 295 -50 0 c-50 0 -50 0 -50 33 0
19 3 37 7 41 4 3 70 5 147 4 l141 -3 3 -37z m-4038 -58 l0 -80 95 0 95 0 0
-40 0 -40 -95 0 -95 0 0 -170 c0 -106 4 -178 11 -194 20 -42 96 -56 165 -29
12 5 15 -3 12 -38 l-3 -44 -52 -9 c-66 -11 -134 -1 -167 25 -54 43 -60 69 -64
272 l-4 187 -29 0 c-27 0 -29 3 -29 40 0 38 2 40 30 40 l30 0 0 80 0 80 50 0
50 0 0 -80z m4290 -10 l0 -80 100 0 100 0 0 -40 0 -40 -101 0 -102 0 5 -173
c3 -124 9 -178 19 -195 20 -33 70 -43 142 -28 l38 7 -3 -43 -3 -43 -55 -9
c-73 -11 -149 6 -182 42 -41 44 -48 83 -48 268 l0 174 -30 0 c-28 0 -30 2 -30
40 0 38 2 40 30 40 l30 0 0 80 0 80 45 0 45 0 0 -80z m-4661 -90 c81 -45 86
-62 89 -317 l4 -223 -51 0 c-48 0 -51 2 -51 25 0 14 -1 25 -2 25 -2 0 -30 -14
-62 -30 -47 -24 -72 -30 -123 -30 -74 0 -107 14 -151 64 -81 93 -36 237 88
281 36 13 182 34 238 35 22 0 14 59 -12 85 -34 34 -103 42 -196 23 -41 -9 -83
-19 -92 -23 -16 -6 -18 -1 -18 43 l0 50 53 11 c28 5 95 9 147 8 80 -2 102 -7
139 -27z m1026 9 l65 -22 0 -53 0 -53 -62 32 c-77 40 -169 45 -214 11 -68 -50
-97 -142 -76 -241 22 -105 71 -148 170 -148 57 0 76 5 125 33 l57 32 0 -50 0
-51 -47 -22 c-68 -31 -210 -31 -268 0 -90 48 -135 130 -137 246 -1 91 7 131
38 184 64 110 201 150 349 102z m1156 9 c85 -28 132 -101 144 -220 l7 -68
-212 0 -211 0 7 -37 c17 -99 89 -160 190 -162 45 -1 169 33 179 49 14 23 25 6
25 -40 l0 -49 -66 -21 c-77 -23 -171 -26 -238 -6 -116 35 -176 117 -184 246
-9 152 53 266 167 306 45 16 147 18 192 2z"/>
<path d="M4370 1858 c-65 -33 -90 -87 -90 -193 0 -91 22 -153 64 -180 40 -26
139 -17 194 18 l42 27 0 160 0 159 -52 16 c-70 21 -106 19 -158 -7z"/>
<path d="M1580 1666 c-65 -14 -95 -31 -109 -63 -28 -62 -3 -116 61 -134 51
-13 99 -5 161 28 l47 26 0 79 0 78 -52 -1 c-29 0 -78 -6 -108 -13z"/>
<path d="M3785 1879 c-60 -14 -115 -76 -115 -129 0 -19 5 -20 155 -20 l155 0
0 26 c0 39 -29 93 -59 108 -38 20 -91 25 -136 15z"/>
</g>
</svg>
