<?xml version="1.0" encoding="UTF-8" standalone="no"?>
<!-- Created with Inkscape (http://www.inkscape.org/) -->

<svg
   width="1024mm"
   height="1024mm"
   viewBox="0 0 1024 1024"
   version="1.1"
   id="svg1"
   xmlns="http://www.w3.org/2000/svg"
   xmlns:svg="http://www.w3.org/2000/svg">
  <defs
     id="defs1" />
  <g
     id="layer1">
    <path
       style="fill:#000000;fill-opacity:0;stroke:#000000;stroke-width:0;stroke-dasharray:none;stroke-opacity:1"
       id="path45"
       d="m 502.75635,124.20286 c 4.15036,3.05386 8.51297,5.80314 12.89079,8.51616 0.59116,0.35352 1.18234,0.70704 1.7735,1.06056 0,0 3.61585,1.39343 3.61585,1.39343 v 0 c -0.59769,-0.35381 -1.19536,-0.70762 -1.79305,-1.06144 -4.36343,-2.68032 -8.718,-5.39709 -12.82073,-8.46675 z" />
    <path
       style="fill:#000000;fill-opacity:0;stroke:#000000;stroke-width:0;stroke-dasharray:none;stroke-opacity:1"
       id="path46"
       d="m 523.9277,138.01572 c 1.83576,1.39788 3.60595,3.38359 5.66679,4.44296 1.4995,0.77081 3.05663,1.42397 4.58494,2.13596 0,0 -3.12976,-2.37022 -3.12976,-2.37022 v 0 c 0.72512,0.55043 1.52953,1.00967 2.17535,1.6513 0.40426,0.40164 -0.97694,-0.58924 -1.44028,-0.92098 -0.28628,-0.20497 -2.74206,-2.17132 -3.02178,-2.40953 -0.40389,-0.34399 -0.78552,-0.71332 -1.17827,-1.06999 z" />
    <path
       style="fill:#000000;fill-opacity:0;stroke:#000000;stroke-width:0;stroke-dasharray:none;stroke-opacity:1"
       id="path47"
       d="m 537.24087,134.5846 c -3.45702,-4.15227 -5.51886,-9.22973 -7.89718,-14.02797 0,0 -3.42569,-1.55115 -3.42569,-1.55115 v 0 c 2.37606,4.78337 4.42248,9.80132 7.66683,14.08722 z" />
    <rect
       style="fill:#ff0000;fill-opacity:0;stroke:#000000;stroke-width:0;stroke-dasharray:none;stroke-opacity:1"
       id="rect49"
       width="146.05"
       height="57.679165"
       x="492.65417"
       y="102.12917" />
    <g
       id="g1"
       transform="matrix(1.1663543,0,0,1.1663543,-189.25646,9.6358012)">
      <path
         style="fill:#000000;stroke-width:0.193009"
         d="m 809.29557,469.20583 0.77204,170.61957 64.07884,52.49834 -1.54407,-273.30015 z"
         id="path2" />
      <path
         id="path53"
         style="fill:#2e86ab;fill-opacity:1;stroke-width:0;stroke-dasharray:none"
         d="m 375.6712,411.30306 -4.43643,1.79162 c -5.11916,2.06719 -11.94158,7.9565 -14.72003,12.70672 -4.63714,7.92796 -4.39043,0.74638 -4.39043,127.92036 0,126.39985 -0.1789,120.95436 4.21887,128.44229 2.20326,3.75141 8.10753,9.60557 12.05663,11.95431 1.5207,0.90443 4.64755,2.15231 6.94841,2.77295 3.6262,0.97753 31.12261,1.10882 206.45613,0.98237 l 202.27293,-0.14573 4.63227,-2.16059 c 6.07978,-2.83566 12.05157,-8.78156 14.80685,-14.74328 l 2.17816,-4.71289 V 553.72744 431.3437 l -2.51664,-5.11184 c -2.92887,-5.94942 -7.11399,-10.03254 -13.21728,-12.8943 l -4.33927,-2.0345 H 580.64628 Z m 85.90018,169.48888 h 242.35833 v 61.38333 H 461.57138 Z" />
      <path
         style="fill:#2e86ab;fill-opacity:1;stroke-width:0.772035"
         d="m 843.63019,666.71808 c -16.33632,-13.39841 -30.44544,-24.95001 -31.35358,-25.67024 l -1.65115,-1.30951 -0.50078,-85.26624 -0.5008,-85.26627 31.08114,-24.46986 c 17.09461,-13.45843 31.16092,-24.39005 31.25849,-24.2925 0.29088,0.29091 1.92086,270.08359 1.63344,270.37101 -0.14537,0.14539 -13.63042,-10.69799 -29.96676,-24.09639 z"
         id="path4" />
      <g
         id="g33">
        <circle
           style="fill:#2e86ab;fill-opacity:1;stroke:#000000;stroke-width:0;stroke-dasharray:none;stroke-opacity:1"
           id="path29"
           cx="443.97083"
           cy="301.39139"
           r="32.279167" />
        <path
           style="fill:#2e86ab;fill-opacity:1;stroke:#000000;stroke-width:0;stroke-dasharray:none;stroke-opacity:1"
           d="m 426.50833,281.51666 -26.45834,-55.03333 35.98334,-25.4 35.98333,19.05 -19.05,61.38333 z"
           id="path30" />
        <path
           style="fill:#2e86ab;fill-opacity:1;stroke:#000000;stroke-width:0;stroke-dasharray:none;stroke-opacity:1"
           d="m 460.32712,291.37504 48.12088,-37.59111 32.4926,29.73536 -10.93386,39.2193 -64.03442,-5.51447 z"
           id="path31" />
        <path
           style="fill:#2e86ab;fill-opacity:1;stroke:#000000;stroke-width:0;stroke-dasharray:none;stroke-opacity:1"
           d="m 457.69433,310.23066 22.36156,56.82139 -37.74502,22.69964 -34.49335,-21.63127 23.48937,-59.82529 z"
           id="path32" />
        <path
           style="fill:#2e86ab;fill-opacity:1;stroke:#000000;stroke-width:0;stroke-dasharray:none;stroke-opacity:1"
           d="m 426.69023,310.16529 -52.11782,31.81891 -28.86455,-33.26859 15.36351,-37.70497 62.97815,12.82843 z"
           id="path33" />
      </g>
      <g
         id="g38">
        <path
           id="path26"
           style="fill:#2e86ab;fill-opacity:1;stroke:#000000;stroke-width:0.1;stroke-dasharray:none;stroke-opacity:1"
           d="M 442.14976,184.97475 A 113.77083,113.24167 0 0 0 328.37944,298.21642 113.77083,113.24167 0 0 0 442.14976,411.45808 113.77083,113.24167 0 0 0 555.92059,298.21642 113.77083,113.24167 0 0 0 442.14976,184.97475 Z m 0,35.96783 a 77.635307,77.274216 0 0 1 77.63557,77.27384 77.635307,77.274216 0 0 1 -77.63557,77.27435 77.635307,77.274216 0 0 1 -77.63506,-77.27435 77.635307,77.274216 0 0 1 77.63506,-77.27384 z" />
        <g
           id="g37">
          <circle
             style="fill:#2e86ab;fill-opacity:1;stroke:#000000;stroke-width:0;stroke-dasharray:none;stroke-opacity:1"
             id="circle33"
             cx="443.97083"
             cy="301.39139"
             r="32.279167" />
          <path
             style="fill:#2e86ab;fill-opacity:1;stroke:#000000;stroke-width:0;stroke-dasharray:none;stroke-opacity:1"
             d="m 426.50833,281.51666 -26.45834,-55.03333 35.98334,-25.4 35.98333,19.05 -19.05,61.38333 z"
             id="path34" />
          <path
             style="fill:#2e86ab;fill-opacity:1;stroke:#000000;stroke-width:0;stroke-dasharray:none;stroke-opacity:1"
             d="m 460.32712,291.37504 48.12088,-37.59111 32.4926,29.73536 -10.93386,39.2193 -64.03442,-5.51447 z"
             id="path35" />
          <path
             style="fill:#2e86ab;fill-opacity:1;stroke:#000000;stroke-width:0;stroke-dasharray:none;stroke-opacity:1"
             d="m 457.69433,310.23066 22.36156,56.82139 -37.74502,22.69964 -34.49335,-21.63127 23.48937,-59.82529 z"
             id="path36" />
          <path
             style="fill:#2e86ab;fill-opacity:1;stroke:#000000;stroke-width:0;stroke-dasharray:none;stroke-opacity:1"
             d="m 426.69023,310.16529 -52.11782,31.81891 -28.86455,-33.26859 15.36351,-37.70497 62.97815,12.82843 z"
             id="path37" />
        </g>
      </g>
      <g
         id="g43"
         transform="translate(242.8875,0.52916663)">
        <path
           id="path38"
           style="fill:#2e86ab;fill-opacity:1;stroke:#000000;stroke-width:0.1;stroke-dasharray:none;stroke-opacity:1"
           d="M 442.14976,184.97475 A 113.77083,113.24167 0 0 0 328.37944,298.21642 113.77083,113.24167 0 0 0 442.14976,411.45808 113.77083,113.24167 0 0 0 555.92059,298.21642 113.77083,113.24167 0 0 0 442.14976,184.97475 Z m 0,35.96783 a 77.635307,77.274216 0 0 1 77.63557,77.27384 77.635307,77.274216 0 0 1 -77.63557,77.27435 77.635307,77.274216 0 0 1 -77.63506,-77.27435 77.635307,77.274216 0 0 1 77.63506,-77.27384 z" />
        <g
           id="g42">
          <circle
             style="fill:#2e86ab;fill-opacity:1;stroke:#000000;stroke-width:0;stroke-dasharray:none;stroke-opacity:1"
             id="circle38"
             cx="443.97083"
             cy="301.39139"
             r="32.279167" />
          <path
             style="fill:#2e86ab;fill-opacity:1;stroke:#000000;stroke-width:0;stroke-dasharray:none;stroke-opacity:1"
             d="m 426.50833,281.51666 -26.45834,-55.03333 35.98334,-25.4 35.98333,19.05 -19.05,61.38333 z"
             id="path39" />
          <path
             style="fill:#2e86ab;fill-opacity:1;stroke:#000000;stroke-width:0;stroke-dasharray:none;stroke-opacity:1"
             d="m 460.32712,291.37504 48.12088,-37.59111 32.4926,29.73536 -10.93386,39.2193 -64.03442,-5.51447 z"
             id="path40" />
          <path
             style="fill:#2e86ab;fill-opacity:1;stroke:#000000;stroke-width:0;stroke-dasharray:none;stroke-opacity:1"
             d="m 457.69433,310.23066 22.36156,56.82139 -37.74502,22.69964 -34.49335,-21.63127 23.48937,-59.82529 z"
             id="path41" />
          <path
             style="fill:#2e86ab;fill-opacity:1;stroke:#000000;stroke-width:0;stroke-dasharray:none;stroke-opacity:1"
             d="m 426.69023,310.16529 -52.11782,31.81891 -28.86455,-33.26859 15.36351,-37.70497 62.97815,12.82843 z"
             id="path42" />
        </g>
      </g>
      <circle
         style="fill:#666666;fill-opacity:1;stroke:#000000;stroke-width:0;stroke-dasharray:none;stroke-opacity:1"
         id="path43"
         cx="441.32498"
         cy="300.56668"
         r="17.991667" />
      <circle
         style="fill:#666666;fill-opacity:1;stroke:#000000;stroke-width:0;stroke-dasharray:none;stroke-opacity:1"
         id="circle43"
         cx="683.68329"
         cy="304.80002"
         r="17.991667" />
      <path
         style="fill:#000000;fill-opacity:0;stroke:#000000;stroke-width:0;stroke-dasharray:none;stroke-opacity:1"
         d="M 645.58333,197.90833 C 500.59166,202.14166 494.24166,196.85 494.24166,196.85 Z"
         id="path44" />
      <rect
         style="fill:#000000;fill-opacity:0;stroke:#000000;stroke-width:0;stroke-dasharray:none;stroke-opacity:1"
         id="rect48"
         width="161.925"
         height="28.045834"
         x="520.17084"
         y="163.5125" />
      <rect
         style="fill:#2e86ab;fill-opacity:1;stroke:#000000;stroke-width:0;stroke-dasharray:none;stroke-opacity:1"
         id="rect50"
         width="218.01669"
         height="5.2916665"
         x="467.78333"
         y="188.38335" />
      <g
         id="g53">
        <circle
           style="fill:#2e86ab;fill-opacity:1;stroke:#000000;stroke-width:0;stroke-dasharray:none;stroke-opacity:1"
           id="path28"
           cx="525.99164"
           cy="615.42084"
           r="13.758333" />
        <circle
           style="fill:#2e86ab;fill-opacity:1;stroke:#000000;stroke-width:0;stroke-dasharray:none;stroke-opacity:1"
           id="circle28"
           cx="577.84998"
           cy="615.42084"
           r="13.758333" />
        <circle
           style="fill:#2e86ab;fill-opacity:1;stroke:#000000;stroke-width:0;stroke-dasharray:none;stroke-opacity:1"
           id="circle29"
           cx="631.82495"
           cy="615.42084"
           r="13.758333" />
      </g>
      <rect
         style="fill:#666666;fill-opacity:1;stroke:#000000;stroke-width:0;stroke-dasharray:none;stroke-opacity:1"
         id="rect53"
         width="408.51666"
         height="112.71249"
         x="378.70139"
         y="444.5" />
      <text
         xml:space="preserve"
         style="font-style:normal;font-variant:normal;font-weight:normal;font-stretch:normal;font-size:93.1333px;font-family:Inter;-inkscape-font-specification:Inter;white-space:pre;inline-size:0;fill:#2e86ab;fill-opacity:1;stroke:#000000;stroke-width:0;stroke-dasharray:none;stroke-opacity:1"
         x="478.89581"
         y="496.88748"
         id="text54"
         transform="translate(4.2333337,42.333334)"><tspan
           id="tspan54"
           style="font-style:normal;font-variant:normal;font-weight:normal;font-stretch:normal;font-size:93.1333px;font-family:Inter;-inkscape-font-specification:Inter;fill:#2e86ab;fill-opacity:1;stroke-width:0"
           x="478.89581"
           y="496.88748">Error</tspan></text>
    </g>
    <circle
       style="fill:#666666;stroke:#000000;stroke-width:0"
       id="path1"
       cx="324.90833"
       cy="360.89166"
       r="21.166666" />
  </g>
</svg>
